<svg id="Layer_1" data-name="Layer 1" xmlns="http://www.w3.org/2000/svg" viewBox="0 0 574.35 126.37"><defs><style>.cls-1{fill:#fff;}</style></defs><path class="cls-1" d="M179,.54V31.89H0C0,1.76,16.92.54,33.44.54Z" transform="translate(0 0.04)"/><path class="cls-1" d="M146.45,97.11H0c0,30.13,16.88,28.73,33.4,28.73H141.11c26.08,0,37.93-11.91,37.93-40.32s-11.85-40.33-37.93-40.33H0C0,75.33,16.88,73,33.4,73h113" transform="translate(0 0.04)"/><path class="cls-1" d="M247.33,94.49h-11.5V31.89H382.15c0-9.53-18.83-31.35-29.58-31.35H247.33c-4.78,0-9.59,0-14.18.46-.65.06-1.31.12-2,.2L229,1.48c-1.07.16-2.13.34-3.16.55-.72.15-1.43.31-2.12.48a32.57,32.57,0,0,0-8.24,3.21,22.91,22.91,0,0,0-5.38,4.22,21.75,21.75,0,0,0-2.2,2.77A22.77,22.77,0,0,0,206.08,16a31.14,31.14,0,0,0-2.4,8.18,46.79,46.79,0,0,0-.51,5c0,.89-.06,1.8-.06,2.74V94.5c0,.94,0,1.85.06,2.74a46.79,46.79,0,0,0,.51,5,31.14,31.14,0,0,0,2.4,8.18,22.77,22.77,0,0,0,1.83,3.27,21.75,21.75,0,0,0,2.2,2.77,24.29,24.29,0,0,0,8.5,5.75,35.23,35.23,0,0,0,5.12,1.68c.69.18,1.4.33,2.12.48,1,.21,2.09.39,3.16.55.72.1,1.45.2,2.19.28l2,.2c4.59.41,9.4.47,14.18.47H352.57c10.75,0,29.58-21.83,29.58-31.36H247.33Z" transform="translate(0 0.04)"/><path class="cls-1" d="M541.76,73.2H439.62c-16.52,0-33.4,2.31-33.4-28h130.2c26.08,0,37.93,12,37.93,40.57v40.57H542.13Z" transform="translate(0 0.04)"/><rect class="cls-1" x="406.22" y="0.1" width="31.36" height="126.27"/><path class="cls-1" d="M566.9,0H528.55c-3.81-.08-7.79,0-10.8,0L467.61,31.58l-.4.22h49.65C526.25,25.8,566.9,0,566.9,0Z" transform="translate(0 0.04)"/><path class="cls-1" d="M516.81,31.89H483.3L533.84.06c9,0,26.53-.89,22.59,4.63C552.67,10,553.21,8.43,516.81,31.89Z" transform="translate(0 0.04)"/></svg>