<svg id="Layer_1" data-name="Layer 1" xmlns="http://www.w3.org/2000/svg" viewBox="0 0 574.35 126.37"><defs><style>.cls-1{fill:#231f20;}</style></defs><path class="cls-1" d="M179,.53V31.89H0C0,1.76,16.92.53,33.43.53Z" transform="translate(0 0.04)"/><path class="cls-1" d="M146.45,97.1H0c0,30.14,16.88,28.73,33.39,28.73H141.11c26.07,0,37.93-11.91,37.93-40.31s-11.86-40.33-37.93-40.33H0C0,75.32,16.88,73,33.39,73H146.45" transform="translate(0 0.04)"/><path class="cls-1" d="M247.33,94.49h-11.5V31.89H382.15c0-9.53-18.83-31.36-29.58-31.36H247.33c-4.79,0-9.59.06-14.18.47l-2,.19L229,1.48c-1.07.16-2.12.34-3.16.55-.71.15-1.42.3-2.11.48a32.57,32.57,0,0,0-8.24,3.21,23,23,0,0,0-5.39,4.22,22.67,22.67,0,0,0-2.2,2.77A23.71,23.71,0,0,0,206,16a31.14,31.14,0,0,0-2.4,8.18,46.79,46.79,0,0,0-.51,5c0,.89-.06,1.8-.06,2.74V94.5c0,.94,0,1.85.06,2.74a46.79,46.79,0,0,0,.51,5,31.14,31.14,0,0,0,2.4,8.18,23.71,23.71,0,0,0,1.82,3.27,23.46,23.46,0,0,0,2.2,2.77,24.17,24.17,0,0,0,8.51,5.74,35.27,35.27,0,0,0,5.12,1.69c.69.17,1.4.33,2.11.47,1,.22,2.09.4,3.16.55.73.11,1.46.21,2.19.29l2,.2c4.59.4,9.39.46,14.18.46H352.57c10.75,0,29.58-21.82,29.58-31.35H247.33Z" transform="translate(0 0.04)"/><path class="cls-1" d="M541.73,73.2H439.64c-16.5,0-33.38,2.32-33.38-28H536.43c26.06,0,37.92,12,37.92,40.6v40.54H542.1Z" transform="translate(0 0.04)"/><rect class="cls-1" x="406.22" y="0.1" width="31.36" height="126.27"/><path class="cls-1" d="M566.85,0H528.49c-3.8-.08-7.78,0-10.8,0L467.56,31.59l-.4.22h49.65Z" transform="translate(0 0.04)"/><path class="cls-1" d="M516.81,31.89H483.3L533.83.05c9,0,26.54-.88,22.6,4.64C552.65,10,553.2,8.41,516.81,31.89Z" transform="translate(0 0.04)"/></svg>